<svg width="149" height="26" viewBox="0 0 149 26" fill="none" xmlns="http://www.w3.org/2000/svg">
<path d="M10.6852 8.0434C7.493 3.94612 6.95973 3.02826 6.95973 1.63095V0L7.95337 1.18333C10.6475 4.3929 16.0834 11.794 16.9729 13.4634C18.3328 16.0156 18.3432 19.2754 16.9989 21.9398C15.781 24.3546 14.0011 25.6514 11.5374 25.9194C5.13907 26.6154 1.58931 18.6503 5.82768 13.1067C6.72802 11.9288 6.90853 11.8526 7.40969 12.4355C7.88264 12.9853 7.82059 13.4023 7.03393 14.9646C6.45901 16.1065 6.09192 17.6357 6.09192 18.8885C6.09192 20.6438 6.30367 21.1576 7.55331 22.4364C8.77908 23.6909 9.30888 23.9317 10.841 23.9317C13.1164 23.9317 14.9019 22.382 15.6291 19.7754C16.5355 16.5269 15.6413 14.4043 10.6852 8.0434Z" fill="#334155"/>
<path d="M1.07254 13.4421C1.70343 12.2294 3.20821 10.1362 4.41576 8.79125C5.62374 7.44587 6.73887 6.35131 6.89421 6.35884C7.30685 6.37894 12.1475 12.8312 13.0938 14.6229C14.5378 17.356 14.0154 20.7795 11.9553 22.0822C10.4262 23.0494 10.2739 22.7057 11.2701 20.5325C12.5527 17.7345 11.5604 14.9403 7.6709 10.3962L6.65817 9.21291L5.48316 10.5604C4.83708 11.3015 3.79267 12.8701 3.16265 14.0467C1.10942 17.8794 1.96204 22.779 5.10349 25.2001C6.30367 26.125 6.3041 26.128 5.22412 25.8072C0.649915 24.4501 -1.43108 18.2521 1.07254 13.4421Z" fill="#334155"/>
<path d="M26.7585 19V10.2727H28.6037V13.8736H32.3494V10.2727H34.1903V19H32.3494V15.3949H28.6037V19H26.7585Z" fill="#334155"/>
<path d="M38.6605 19.1278C37.9872 19.1278 37.4077 18.9915 36.9219 18.7188C36.4389 18.4432 36.0668 18.054 35.8054 17.5511C35.544 17.0455 35.4134 16.4474 35.4134 15.7571C35.4134 15.0838 35.544 14.4929 35.8054 13.9844C36.0668 13.4759 36.4347 13.0795 36.9091 12.7955C37.3864 12.5114 37.946 12.3693 38.5881 12.3693C39.0199 12.3693 39.4219 12.4389 39.794 12.5781C40.169 12.7145 40.4957 12.9205 40.7741 13.196C41.0554 13.4716 41.2741 13.8182 41.4304 14.2358C41.5866 14.6506 41.6648 15.1364 41.6648 15.6932V16.1918H36.1378V15.0668H39.956C39.956 14.8054 39.8991 14.5739 39.7855 14.3722C39.6719 14.1705 39.5142 14.0128 39.3125 13.8991C39.1136 13.7827 38.8821 13.7244 38.6179 13.7244C38.3423 13.7244 38.098 13.7884 37.8849 13.9162C37.6747 14.0412 37.5099 14.2102 37.3906 14.4233C37.2713 14.6335 37.2102 14.8679 37.2074 15.1264V16.196C37.2074 16.5199 37.267 16.7997 37.3864 17.0355C37.5085 17.2713 37.6804 17.4531 37.902 17.581C38.1236 17.7088 38.3864 17.7727 38.6903 17.7727C38.892 17.7727 39.0767 17.7443 39.2443 17.6875C39.4119 17.6307 39.5554 17.5455 39.6747 17.4318C39.794 17.3182 39.8849 17.179 39.9474 17.0142L41.6264 17.125C41.5412 17.5284 41.3665 17.8807 41.1023 18.1818C40.8409 18.4801 40.5028 18.7131 40.0881 18.8807C39.6761 19.0455 39.2003 19.1278 38.6605 19.1278Z" fill="#334155"/>
<path d="M42.8494 19V12.4545H44.5795V13.6094H44.6562C44.7926 13.2259 45.0199 12.9233 45.3381 12.7017C45.6563 12.4801 46.0369 12.3693 46.4801 12.3693C46.929 12.3693 47.3111 12.4815 47.6264 12.706C47.9418 12.9276 48.152 13.2287 48.2571 13.6094H48.3253C48.4588 13.2344 48.7003 12.9347 49.0497 12.7102C49.402 12.483 49.8182 12.3693 50.2983 12.3693C50.9091 12.3693 51.4048 12.5639 51.7855 12.9531C52.169 13.3395 52.3608 13.8878 52.3608 14.598V19H50.5497V14.956C50.5497 14.5923 50.4531 14.3196 50.2599 14.1378C50.0668 13.956 49.8253 13.8651 49.5355 13.8651C49.206 13.8651 48.9489 13.9702 48.7642 14.1804C48.5795 14.3878 48.4872 14.6619 48.4872 15.0028V19H46.7273V14.9176C46.7273 14.5966 46.6349 14.3409 46.4503 14.1506C46.2685 13.9602 46.0284 13.8651 45.7301 13.8651C45.5284 13.8651 45.3466 13.9162 45.1847 14.0185C45.0256 14.1179 44.8991 14.2585 44.8054 14.4403C44.7116 14.6193 44.6648 14.8295 44.6648 15.071V19H42.8494Z" fill="#334155"/>
<path d="M55.6612 19.1236C55.2436 19.1236 54.8714 19.0511 54.5447 18.9062C54.218 18.7585 53.9595 18.5412 53.7692 18.2543C53.5817 17.9645 53.4879 17.6037 53.4879 17.1719C53.4879 16.8082 53.5547 16.5028 53.6882 16.2557C53.8217 16.0085 54.0036 15.8097 54.2337 15.6591C54.4638 15.5085 54.7251 15.3949 55.0178 15.3182C55.3132 15.2415 55.6229 15.1875 55.9467 15.1562C56.3274 15.1165 56.6342 15.0795 56.8672 15.0455C57.1001 15.0085 57.2692 14.9545 57.3743 14.8835C57.4794 14.8125 57.532 14.7074 57.532 14.5682V14.5426C57.532 14.2727 57.4467 14.0639 57.2763 13.9162C57.1087 13.7685 56.87 13.6946 56.5604 13.6946C56.2337 13.6946 55.9737 13.767 55.7805 13.9119C55.5874 14.054 55.4595 14.233 55.397 14.4489L53.718 14.3125C53.8033 13.9148 53.9709 13.571 54.2209 13.2812C54.4709 12.9886 54.7933 12.7642 55.1882 12.608C55.5859 12.4489 56.0462 12.3693 56.5689 12.3693C56.9325 12.3693 57.2805 12.4119 57.6129 12.4972C57.9482 12.5824 58.245 12.7145 58.5036 12.8935C58.7649 13.0724 58.9709 13.3026 59.1214 13.5838C59.272 13.8622 59.3473 14.196 59.3473 14.5852V19H57.6257V18.0923H57.5746C57.4695 18.2969 57.3288 18.4773 57.1527 18.6335C56.9766 18.7869 56.7649 18.9077 56.5178 18.9957C56.2706 19.081 55.9851 19.1236 55.6612 19.1236ZM56.1811 17.8707C56.4482 17.8707 56.6839 17.8182 56.8885 17.7131C57.093 17.6051 57.2536 17.4602 57.37 17.2784C57.4865 17.0966 57.5447 16.8906 57.5447 16.6605V15.9659C57.4879 16.0028 57.4098 16.0369 57.3104 16.0682C57.2138 16.0966 57.1044 16.1236 56.9822 16.1491C56.8601 16.1719 56.7379 16.1932 56.6158 16.2131C56.4936 16.2301 56.3828 16.2457 56.2834 16.2599C56.0703 16.2912 55.8842 16.3409 55.7251 16.4091C55.5661 16.4773 55.4425 16.5696 55.3544 16.6861C55.2663 16.7997 55.2223 16.9418 55.2223 17.1122C55.2223 17.3594 55.3118 17.5483 55.4908 17.679C55.6726 17.8068 55.9027 17.8707 56.1811 17.8707Z" fill="#334155"/>
<path d="M64.2372 12.4545V13.8182H60.2955V12.4545H64.2372ZM61.1903 10.8864H63.0057V16.9886C63.0057 17.1562 63.0312 17.2869 63.0824 17.3807C63.1335 17.4716 63.2045 17.5355 63.2955 17.5724C63.3892 17.6094 63.4972 17.6278 63.6193 17.6278C63.7045 17.6278 63.7898 17.6207 63.875 17.6065C63.9602 17.5895 64.0256 17.5767 64.071 17.5682L64.3565 18.919C64.2656 18.9474 64.1378 18.9801 63.973 19.017C63.8082 19.0568 63.608 19.081 63.3722 19.0895C62.9347 19.1065 62.5511 19.0483 62.2216 18.9148C61.8949 18.7812 61.6406 18.5739 61.4588 18.2926C61.277 18.0114 61.1875 17.6562 61.1903 17.2273V10.8864Z" fill="#334155"/>
<path d="M68.3068 19.1278C67.6449 19.1278 67.0724 18.9872 66.5895 18.706C66.1094 18.4219 65.7386 18.027 65.4773 17.5213C65.2159 17.0128 65.0852 16.4233 65.0852 15.7528C65.0852 15.0767 65.2159 14.4858 65.4773 13.9801C65.7386 13.4716 66.1094 13.0767 66.5895 12.7955C67.0724 12.5114 67.6449 12.3693 68.3068 12.3693C68.9687 12.3693 69.5398 12.5114 70.0199 12.7955C70.5028 13.0767 70.875 13.4716 71.1364 13.9801C71.3977 14.4858 71.5284 15.0767 71.5284 15.7528C71.5284 16.4233 71.3977 17.0128 71.1364 17.5213C70.875 18.027 70.5028 18.4219 70.0199 18.706C69.5398 18.9872 68.9687 19.1278 68.3068 19.1278ZM68.3153 17.7216C68.6165 17.7216 68.8679 17.6364 69.0696 17.4659C69.2713 17.2926 69.4233 17.0568 69.5256 16.7585C69.6307 16.4602 69.6832 16.1207 69.6832 15.7401C69.6832 15.3594 69.6307 15.0199 69.5256 14.7216C69.4233 14.4233 69.2713 14.1875 69.0696 14.0142C68.8679 13.8409 68.6165 13.7543 68.3153 13.7543C68.0114 13.7543 67.7557 13.8409 67.5483 14.0142C67.3437 14.1875 67.1889 14.4233 67.0838 14.7216C66.9815 15.0199 66.9304 15.3594 66.9304 15.7401C66.9304 16.1207 66.9815 16.4602 67.0838 16.7585C67.1889 17.0568 67.3437 17.2926 67.5483 17.4659C67.7557 17.6364 68.0114 17.7216 68.3153 17.7216Z" fill="#334155"/>
<path d="M78.1548 14.321L76.4929 14.4233C76.4645 14.2812 76.4034 14.1534 76.3097 14.0398C76.2159 13.9233 76.0923 13.831 75.9389 13.7628C75.7884 13.6918 75.608 13.6562 75.3977 13.6562C75.1165 13.6562 74.8793 13.7159 74.6861 13.8352C74.4929 13.9517 74.3963 14.108 74.3963 14.304C74.3963 14.4602 74.4588 14.5923 74.5838 14.7003C74.7088 14.8082 74.9233 14.8949 75.2273 14.9602L76.4119 15.1989C77.0483 15.3295 77.5227 15.5398 77.8352 15.8295C78.1477 16.1193 78.304 16.5 78.304 16.9716C78.304 17.4006 78.1776 17.777 77.9247 18.1009C77.6747 18.4247 77.331 18.6776 76.8935 18.8594C76.4588 19.0384 75.9574 19.1278 75.3892 19.1278C74.5227 19.1278 73.8324 18.9474 73.3182 18.5866C72.8068 18.223 72.5071 17.7287 72.419 17.1037L74.2045 17.0099C74.2585 17.2741 74.3892 17.4759 74.5966 17.6151C74.804 17.7514 75.0696 17.8196 75.3935 17.8196C75.7116 17.8196 75.9673 17.7585 76.1605 17.6364C76.3565 17.5114 76.456 17.3509 76.4588 17.1548C76.456 16.9901 76.3864 16.8551 76.25 16.75C76.1136 16.642 75.9034 16.5597 75.6193 16.5028L74.4858 16.277C73.8466 16.1491 73.3707 15.9276 73.0582 15.6122C72.7486 15.2969 72.5938 14.8949 72.5938 14.4062C72.5938 13.9858 72.7074 13.6236 72.9347 13.3196C73.1648 13.0156 73.4872 12.7812 73.902 12.6165C74.3196 12.4517 74.8082 12.3693 75.3679 12.3693C76.1946 12.3693 76.8452 12.544 77.3196 12.8935C77.7969 13.2429 78.0753 13.7188 78.1548 14.321Z" fill="#334155"/>
<path d="M82.4045 19.1278C81.734 19.1278 81.1573 18.9858 80.6744 18.7017C80.1942 18.4148 79.8249 18.017 79.5664 17.5085C79.3107 17 79.1829 16.4148 79.1829 15.7528C79.1829 15.0824 79.3121 14.4943 79.5707 13.9886C79.832 13.4801 80.2028 13.0838 80.6829 12.7997C81.163 12.5128 81.734 12.3693 82.396 12.3693C82.967 12.3693 83.467 12.473 83.896 12.6804C84.3249 12.8878 84.6644 13.179 84.9144 13.554C85.1644 13.929 85.3022 14.3693 85.3278 14.875H83.6147C83.5664 14.5483 83.4386 14.2855 83.2312 14.0866C83.0266 13.8849 82.7582 13.7841 82.4258 13.7841C82.1445 13.7841 81.8988 13.8608 81.6886 14.0142C81.4812 14.1648 81.3192 14.3849 81.2028 14.6747C81.0863 14.9645 81.0281 15.3153 81.0281 15.7273C81.0281 16.1449 81.0849 16.5 81.1985 16.7926C81.315 17.0852 81.4783 17.3082 81.6886 17.4616C81.8988 17.6151 82.1445 17.6918 82.4258 17.6918C82.6332 17.6918 82.8192 17.6491 82.984 17.5639C83.1516 17.4787 83.2894 17.3551 83.3974 17.1932C83.5082 17.0284 83.5806 16.831 83.6147 16.6009H85.3278C85.2994 17.1009 85.163 17.5412 84.9187 17.9219C84.6772 18.2997 84.3434 18.5952 83.9173 18.8082C83.4911 19.0213 82.9869 19.1278 82.4045 19.1278Z" fill="#334155"/>
<path d="M88.3565 19.1236C87.9389 19.1236 87.5668 19.0511 87.2401 18.9062C86.9134 18.7585 86.6548 18.5412 86.4645 18.2543C86.277 17.9645 86.1832 17.6037 86.1832 17.1719C86.1832 16.8082 86.25 16.5028 86.3835 16.2557C86.517 16.0085 86.6989 15.8097 86.929 15.6591C87.1591 15.5085 87.4205 15.3949 87.7131 15.3182C88.0085 15.2415 88.3182 15.1875 88.642 15.1562C89.0227 15.1165 89.3295 15.0795 89.5625 15.0455C89.7955 15.0085 89.9645 14.9545 90.0696 14.8835C90.1747 14.8125 90.2273 14.7074 90.2273 14.5682V14.5426C90.2273 14.2727 90.142 14.0639 89.9716 13.9162C89.804 13.7685 89.5653 13.6946 89.2557 13.6946C88.929 13.6946 88.669 13.767 88.4759 13.9119C88.2827 14.054 88.1548 14.233 88.0923 14.4489L86.4134 14.3125C86.4986 13.9148 86.6662 13.571 86.9162 13.2812C87.1662 12.9886 87.4886 12.7642 87.8835 12.608C88.2812 12.4489 88.7415 12.3693 89.2642 12.3693C89.6278 12.3693 89.9758 12.4119 90.3082 12.4972C90.6435 12.5824 90.9403 12.7145 91.1989 12.8935C91.4602 13.0724 91.6662 13.3026 91.8168 13.5838C91.9673 13.8622 92.0426 14.196 92.0426 14.5852V19H90.321V18.0923H90.2699C90.1648 18.2969 90.0242 18.4773 89.848 18.6335C89.6719 18.7869 89.4602 18.9077 89.2131 18.9957C88.9659 19.081 88.6804 19.1236 88.3565 19.1236ZM88.8764 17.8707C89.1435 17.8707 89.3793 17.8182 89.5838 17.7131C89.7884 17.6051 89.9489 17.4602 90.0653 17.2784C90.1818 17.0966 90.2401 16.8906 90.2401 16.6605V15.9659C90.1832 16.0028 90.1051 16.0369 90.0057 16.0682C89.9091 16.0966 89.7997 16.1236 89.6776 16.1491C89.5554 16.1719 89.4332 16.1932 89.3111 16.2131C89.1889 16.2301 89.0781 16.2457 88.9787 16.2599C88.7656 16.2912 88.5795 16.3409 88.4205 16.4091C88.2614 16.4773 88.1378 16.5696 88.0497 16.6861C87.9616 16.7997 87.9176 16.9418 87.9176 17.1122C87.9176 17.3594 88.0071 17.5483 88.1861 17.679C88.3679 17.8068 88.598 17.8707 88.8764 17.8707Z" fill="#334155"/>
<path d="M95.2663 15.2159V19H93.451V12.4545H95.1811V13.6094H95.2578C95.4027 13.2287 95.6456 12.9276 95.9865 12.706C96.3274 12.4815 96.7408 12.3693 97.2266 12.3693C97.6811 12.3693 98.0774 12.4688 98.4155 12.6676C98.7535 12.8665 99.0163 13.1506 99.2038 13.5199C99.3913 13.8864 99.4851 14.3239 99.4851 14.8324V19H97.6697V15.1562C97.6726 14.7557 97.5703 14.4432 97.3629 14.2188C97.1555 13.9915 96.87 13.8778 96.5064 13.8778C96.2621 13.8778 96.0462 13.9304 95.8587 14.0355C95.674 14.1406 95.5291 14.294 95.424 14.4957C95.3217 14.6946 95.2692 14.9347 95.2663 15.2159Z" fill="#334155"/>
<path d="M107.021 15.9659H108.589L109.378 16.9801L110.153 17.8835L111.615 19.7159H109.893L108.888 18.4801L108.372 17.7472L107.021 15.9659ZM111.747 14.6364C111.747 15.5881 111.567 16.3977 111.206 17.0653C110.848 17.733 110.359 18.2429 109.74 18.5952C109.124 18.9446 108.43 19.1193 107.661 19.1193C106.885 19.1193 106.189 18.9432 105.572 18.5909C104.956 18.2386 104.469 17.7287 104.111 17.0611C103.753 16.3935 103.574 15.5852 103.574 14.6364C103.574 13.6847 103.753 12.875 104.111 12.2074C104.469 11.5398 104.956 11.0312 105.572 10.6818C106.189 10.3295 106.885 10.1534 107.661 10.1534C108.43 10.1534 109.124 10.3295 109.74 10.6818C110.359 11.0312 110.848 11.5398 111.206 12.2074C111.567 12.875 111.747 13.6847 111.747 14.6364ZM109.876 14.6364C109.876 14.0199 109.784 13.5 109.599 13.0767C109.418 12.6534 109.161 12.3324 108.828 12.1136C108.496 11.8949 108.107 11.7855 107.661 11.7855C107.214 11.7855 106.825 11.8949 106.493 12.1136C106.161 12.3324 105.902 12.6534 105.717 13.0767C105.536 13.5 105.445 14.0199 105.445 14.6364C105.445 15.2528 105.536 15.7727 105.717 16.196C105.902 16.6193 106.161 16.9403 106.493 17.1591C106.825 17.3778 107.214 17.4872 107.661 17.4872C108.107 17.4872 108.496 17.3778 108.828 17.1591C109.161 16.9403 109.418 16.6193 109.599 16.196C109.784 15.7727 109.876 15.2528 109.876 14.6364Z" fill="#334155"/>
<path d="M117.277 16.2131V12.4545H119.093V19H117.35V17.8111H117.282C117.134 18.1946 116.888 18.5028 116.544 18.7358C116.203 18.9688 115.787 19.0852 115.296 19.0852C114.858 19.0852 114.473 18.9858 114.141 18.7869C113.809 18.5881 113.549 18.3054 113.361 17.9389C113.176 17.5724 113.083 17.1335 113.08 16.6222V12.4545H114.895V16.2983C114.898 16.6847 115.002 16.9901 115.206 17.2145C115.411 17.4389 115.685 17.5511 116.029 17.5511C116.248 17.5511 116.452 17.5014 116.642 17.402C116.833 17.2997 116.986 17.1491 117.103 16.9503C117.222 16.7514 117.28 16.5057 117.277 16.2131Z" fill="#334155"/>
<path d="M120.545 19V12.4545H122.36V19H120.545ZM121.457 11.6108C121.187 11.6108 120.955 11.5213 120.762 11.3423C120.572 11.1605 120.477 10.9432 120.477 10.6903C120.477 10.4403 120.572 10.2259 120.762 10.0469C120.955 9.86506 121.187 9.77415 121.457 9.77415C121.727 9.77415 121.957 9.86506 122.147 10.0469C122.34 10.2259 122.437 10.4403 122.437 10.6903C122.437 10.9432 122.34 11.1605 122.147 11.3423C121.957 11.5213 121.727 11.6108 121.457 11.6108Z" fill="#334155"/>
<path d="M123.78 19V17.9176L126.985 13.9503V13.9034H123.891V12.4545H129.171V13.6349L126.162 17.5043V17.5511H129.282V19H123.78Z" fill="#334155"/>
<path d="M130.636 19V17.9176L133.84 13.9503V13.9034H130.746V12.4545H136.026V13.6349L133.018 17.5043V17.5511H136.137V19H130.636Z" fill="#334155"/>
<path d="M140.321 19.1278C139.647 19.1278 139.068 18.9915 138.582 18.7188C138.099 18.4432 137.727 18.054 137.466 17.5511C137.204 17.0455 137.074 16.4474 137.074 15.7571C137.074 15.0838 137.204 14.4929 137.466 13.9844C137.727 13.4759 138.095 13.0795 138.569 12.7955C139.047 12.5114 139.606 12.3693 140.248 12.3693C140.68 12.3693 141.082 12.4389 141.454 12.5781C141.829 12.7145 142.156 12.9205 142.434 13.196C142.716 13.4716 142.934 13.8182 143.091 14.2358C143.247 14.6506 143.325 15.1364 143.325 15.6932V16.1918H137.798V15.0668H141.616C141.616 14.8054 141.559 14.5739 141.446 14.3722C141.332 14.1705 141.174 14.0128 140.973 13.8991C140.774 13.7827 140.542 13.7244 140.278 13.7244C140.002 13.7244 139.758 13.7884 139.545 13.9162C139.335 14.0412 139.17 14.2102 139.051 14.4233C138.931 14.6335 138.87 14.8679 138.868 15.1264V16.196C138.868 16.5199 138.927 16.7997 139.047 17.0355C139.169 17.2713 139.341 17.4531 139.562 17.581C139.784 17.7088 140.047 17.7727 140.35 17.7727C140.552 17.7727 140.737 17.7443 140.904 17.6875C141.072 17.6307 141.216 17.5455 141.335 17.4318C141.454 17.3182 141.545 17.179 141.608 17.0142L143.287 17.125C143.201 17.5284 143.027 17.8807 142.762 18.1818C142.501 18.4801 142.163 18.7131 141.748 18.8807C141.336 19.0455 140.86 19.1278 140.321 19.1278Z" fill="#334155"/>
<path d="M144.51 19V12.4545H146.27V13.5966H146.338C146.457 13.1903 146.657 12.8835 146.939 12.6761C147.22 12.4659 147.544 12.3608 147.91 12.3608C148.001 12.3608 148.099 12.3665 148.204 12.3778C148.309 12.3892 148.402 12.4048 148.481 12.4247V14.0355C148.396 14.0099 148.278 13.9872 148.127 13.9673C147.977 13.9474 147.839 13.9375 147.714 13.9375C147.447 13.9375 147.208 13.9957 146.998 14.1122C146.791 14.2259 146.626 14.3849 146.504 14.5895C146.385 14.794 146.325 15.0298 146.325 15.2969V19H144.51Z" fill="#334155"/>
</svg>
